<svg id="Layer_1" data-name="Layer 1" xmlns="http://www.w3.org/2000/svg" viewBox="0 0 448.18 511.94"><defs><style>.cls-1{fill:#fff;}</style></defs><title>1_1 white</title><path class="cls-1" d="M288.3,481.34a224.46,224.46,0,0,1-146.34-54,2.73,2.73,0,0,1-1-2.08V361.77a1.64,1.64,0,0,1,3-1,178.4,178.4,0,0,0,281.15,9.62,1.64,1.64,0,0,0-.1-2.21s-21.28-20.89-21.37-20.78L198.13,141.93a1.65,1.65,0,0,1,.15-2.46,147.24,147.24,0,0,1,202.4,21.39,1.63,1.63,0,0,0,2.41.11l19.77-19.77a1.65,1.65,0,0,0,.08-2.24,178.36,178.36,0,0,0-269.12-.18,1.63,1.63,0,0,0,.08,2.23l21,21,0,0L381,368a1.63,1.63,0,0,1-.12,2.43,146.5,146.5,0,0,1-88.36,32.67c-84.67,2.36-154.25-67.68-151.31-152.34a146.77,146.77,0,0,1,9-45.75,1.64,1.64,0,0,0-.37-1.72L128.39,182a1.64,1.64,0,0,0-2.65.48A177.73,177.73,0,0,0,109.91,256c0,4,.39,109.41.48,133.51a1.64,1.64,0,0,1-3,1C72,342.93,54.92,281,66.54,215a223.14,223.14,0,0,1,180.9-180.8C330.15,19.67,406.55,50.3,456.1,105.52a1.62,1.62,0,0,0,2.37.06l19.34-19.34a1.63,1.63,0,0,0,.06-2.26A255.31,255.31,0,0,0,288.3,0c-141.37,0-256,114.6-256,256s114.6,256,256,256a255.35,255.35,0,0,0,191.8-86.47,1.63,1.63,0,0,0-.08-2.24l-19.35-19.36a1.65,1.65,0,0,0-2.4.08A224.81,224.81,0,0,1,288.3,481.34Z" transform="translate(-32.33)"/></svg>